<svg id="Layer_1" data-name="Layer 1" xmlns="http://www.w3.org/2000/svg" viewBox="0 0 800 484"><defs><style>.cls-1{fill:#c4c4c4;stroke:#231f20;stroke-miterlimit:10;}.cls-2{fill:#4f4f4f;}</style></defs><title>no-webp</title><rect class="cls-1" width="800" height="484"/><path class="cls-2" d="M202.58,70.52c0,10.23-6.19,17.93-18.58,17.93s-18.58-7.27-18.58-17.93V37.33h11.88v28.8c0,8.93,1,13.54,6.7,13.54s6.7-4.61,6.7-13.54V37.33h11.88Z"/><path class="cls-2" d="M222,52.81a14.9,14.9,0,0,1,11.23-5.11c6.77,0,10.51,4.18,10.51,11.45V87.23H232.39V62.31c0-4.61-.86-6.19-3.67-6.19-2.45,0-4.54,1.8-6.7,4.68V87.23H210.64V33.8L222,32.65Z"/><path class="cls-2" d="M332.18,68c0,12.82-6.84,20.45-18.58,20.45S295,81,295,68.07c0-12.17,6.84-20.38,18.58-20.38S332.18,55.76,332.18,68Zm-25.42.07c0,8.5,2.16,12,6.84,12s6.84-3.53,6.84-12.1c0-8.28-2.16-11.88-6.84-11.88S306.76,59.72,306.76,68.07Z"/><path class="cls-2" d="M351.62,52.81a14.9,14.9,0,0,1,11.23-5.11c6.77,0,10.51,4.18,10.51,11.45V87.23H362V62.31c0-4.61-.86-6.19-3.67-6.19-2.45,0-4.54,1.8-6.7,4.68V87.23H340.24V33.8l11.38-1.15Z"/><path class="cls-2" d="M400,72.39a8,8,0,1,1-8,8A8,8,0,0,1,400,72.39Z"/><path class="cls-2" d="M492.31,87.23H480.5V68.58L464.22,37.33h13l9.43,21.46,9.5-21.46h12.46L492.31,68.5Z"/><path class="cls-2" d="M548.18,68c0,12.82-6.84,20.45-18.58,20.45S511,81,511,68.07c0-12.17,6.84-20.38,18.58-20.38S548.18,55.76,548.18,68Zm-25.42.07c0,8.5,2.16,12,6.84,12s6.84-3.53,6.84-12.1c0-8.28-2.16-11.88-6.84-11.88S522.76,59.72,522.76,68.07Z"/><path class="cls-2" d="M567.61,75.13c0,3.74,1.44,4.9,3.89,4.9s4.9-1.58,6.48-4.18V49h11.38V87.23h-9.94l-.5-4.46a14.14,14.14,0,0,1-11.74,5.69c-7.42,0-10.95-4.61-10.95-11.88V49h11.38Z"/><path class="cls-2" d="M634.94,49l-2.09,16h-7.2V57.92c-4.32.79-7.63,5-9.43,10.73V79.59h7.56v7.63h-24V79.59h5v-23h-5V49h13.75l2,8.57c2.74-6.55,6.91-9.72,13-9.72A16.33,16.33,0,0,1,634.94,49Z"/><path class="cls-2" d="M102.22,134.09c9.79,0,14.11,7.85,14.11,20.31,0,11.81-5.4,20.45-15.34,20.45a11.47,11.47,0,0,1-9.43-4.68l-.43,3.46H81V120.2L92.42,119v20.31A12.32,12.32,0,0,1,102.22,134.09Zm2.38,20.45c0-9.5-2.38-12-6-12-2.59,0-4.54,1.66-6.19,4.46v16.13c1.44,2.23,3.17,3.46,5.62,3.46C102.07,166.57,104.59,163.18,104.59,154.54Z"/><path class="cls-2" d="M159.74,135.39l-2.09,16h-7.2v-7.06c-4.32.79-7.63,5-9.43,10.73V166h7.56v7.63h-24V166h5V143h-5v-7.56h13.75l2,8.57c2.74-6.55,6.91-9.72,13-9.72A16.33,16.33,0,0,1,159.74,135.39Z"/><path class="cls-2" d="M202.58,154.4c0,12.82-6.84,20.45-18.58,20.45s-18.58-7.49-18.58-20.38c0-12.17,6.84-20.38,18.58-20.38S202.58,142.16,202.58,154.4Zm-25.42.07c0,8.5,2.16,12,6.84,12s6.84-3.53,6.84-12.1c0-8.28-2.16-11.88-6.84-11.88S177.16,146.12,177.16,154.47Z"/><path class="cls-2" d="M230.59,173.63l-3.31-25.71-3.46,25.71H211.51l-5.69-38.24h10.44l2.52,31.11,4-26.28h9.65l3.53,26.28,2.59-31.11h10.08l-5.47,38.24Z"/><path class="cls-2" d="M275.52,163.11c0-2.45-1.44-3.38-9.07-5.47-7-1.87-11.81-4.9-11.81-11.67s5.83-11.88,16.56-11.88c6.84,0,11.74,1.94,15.48,4.68l-4.54,6.7a20.73,20.73,0,0,0-10.58-3.24c-3.74,0-5.47.94-5.47,3s1.51,2.81,9,4.9,12.24,4.61,12.24,12.1c0,8.42-8.35,12.67-18.07,12.67-7.42,0-13.1-2.3-17-5.76l5.69-6.41a18.19,18.19,0,0,0,11.23,4C273,166.71,275.52,165.56,275.52,163.11Z"/><path class="cls-2" d="M316.12,166.57a18.18,18.18,0,0,0,9.79-3.17l4.54,6.19a23.07,23.07,0,0,1-15.27,5.26c-13.1,0-19.87-8.42-19.87-20.31,0-11.31,6.62-20.45,18.65-20.45,10.94,0,17.93,7.34,17.93,19.66a37.18,37.18,0,0,1-.22,4.1H306.91C307.7,164.12,311.23,166.57,316.12,166.57Zm-9.36-15.63h14c-.07-5.54-2-9.22-6.84-9.22C309.93,141.73,307.27,144.61,306.76,150.94Z"/><path class="cls-2" d="M375.74,135.39l-2.09,16h-7.2v-7.06c-4.32.79-7.63,5-9.43,10.73V166h7.56v7.63h-24V166h5V143h-5v-7.56h13.75l2,8.57c2.74-6.55,6.91-9.72,13-9.72A16.33,16.33,0,0,1,375.74,135.39Z"/><path class="cls-2" d="M459.76,120.2v53.43H449.68l-.58-4.18a12.53,12.53,0,0,1-10.58,5.4c-9.5,0-14-8.14-14-20.45,0-11.81,5.83-20.31,15.27-20.31a11.68,11.68,0,0,1,8.64,3.6V119Zm-23.55,34.27c0,9.43,2.45,12,5.9,12,2.59,0,4.61-1.66,6.26-4.39V145.62c-1.58-2-3.24-3.17-5.62-3.17C438.81,142.45,436.22,145.9,436.22,154.47Z"/><path class="cls-2" d="M505,154.4c0,12.82-6.84,20.45-18.58,20.45s-18.58-7.49-18.58-20.38c0-12.17,6.84-20.38,18.58-20.38S505,142.16,505,154.4Zm-25.42.07c0,8.5,2.16,12,6.84,12s6.84-3.53,6.84-12.1c0-8.28-2.16-11.88-6.84-11.88S479.56,146.12,479.56,154.47Z"/><path class="cls-2" d="M532.12,166.57a18.18,18.18,0,0,0,9.79-3.17l4.54,6.19a23.07,23.07,0,0,1-15.27,5.26c-13.1,0-19.87-8.42-19.87-20.31,0-11.31,6.62-20.45,18.65-20.45,10.95,0,17.93,7.34,17.93,19.66a37.31,37.31,0,0,1-.22,4.1H522.9C523.7,164.12,527.22,166.57,532.12,166.57Zm-9.36-15.63h14c-.07-5.54-2-9.22-6.84-9.22C525.93,141.73,523.26,144.61,522.76,150.94Z"/><path class="cls-2" d="M577.91,163.11c0-2.45-1.44-3.38-9.07-5.47-7-1.87-11.81-4.9-11.81-11.67s5.83-11.88,16.56-11.88c6.84,0,11.74,1.94,15.48,4.68l-4.54,6.7A20.73,20.73,0,0,0,574,142.23c-3.74,0-5.47.94-5.47,3s1.51,2.81,9,4.9,12.24,4.61,12.24,12.1c0,8.42-8.35,12.67-18.07,12.67-7.42,0-13.11-2.3-17-5.76l5.69-6.41a18.19,18.19,0,0,0,11.23,4C575.39,166.71,577.91,165.56,577.91,163.11Z"/><path class="cls-2" d="M599.44,135.39h9.94l.79,4.39c3.38-3.82,7-5.69,11.88-5.69,6.55,0,10.51,4.18,10.51,11.45v28.08H621.18V148.86c0-4.75-.86-6.34-3.67-6.34-2.45,0-4.54,1.66-6.7,4.39v26.71H599.44Z"/><path class="cls-2" d="M659.34,116.81a6.54,6.54,0,0,1,6.77,6.55c0,2-.58,4-2.3,7.42l-5.11,10.73h-6.48l3.1-12.75a6.6,6.6,0,0,1,4-12Z"/><path class="cls-2" d="M707.73,174.85c-10,0-14.76-5.47-14.76-14.26V143.24h-8v-7.85h8v-8.28l11.38-1.37v9.65h12.31l-1.15,7.85H704.34v17.35c0,3.82,1.66,5.26,5.47,5.26a13.54,13.54,0,0,0,6.7-1.73l3.74,7.27A23.08,23.08,0,0,1,707.73,174.85Z"/><path class="cls-2" d="M102.72,249.51c0-2.45-1.44-3.38-9.07-5.47-7-1.87-11.81-4.9-11.81-11.67s5.83-11.88,16.56-11.88c6.84,0,11.74,1.94,15.48,4.68l-4.54,6.7a20.73,20.73,0,0,0-10.58-3.24c-3.74,0-5.47.94-5.47,3s1.51,2.81,9,4.9,12.24,4.61,12.24,12.1c0,8.42-8.35,12.67-18.07,12.67-7.42,0-13.1-2.3-17-5.76l5.69-6.41a18.19,18.19,0,0,0,11.23,4C100.2,253.11,102.72,252,102.72,249.51Z"/><path class="cls-2" d="M143.33,253a18.18,18.18,0,0,0,9.79-3.17l4.54,6.19a23.07,23.07,0,0,1-15.27,5.26c-13.1,0-19.87-8.42-19.87-20.31,0-11.3,6.62-20.45,18.65-20.45,10.94,0,17.93,7.34,17.93,19.66a37.19,37.19,0,0,1-.22,4.1H134.11C134.9,250.52,138.43,253,143.33,253ZM134,237.34h14c-.07-5.54-2-9.22-6.84-9.22C137.13,228.13,134.47,231,134,237.34Z"/><path class="cls-2" d="M186.53,253a18.18,18.18,0,0,0,9.79-3.17l4.54,6.19a23.07,23.07,0,0,1-15.27,5.26c-13.1,0-19.87-8.42-19.87-20.31,0-11.3,6.62-20.45,18.65-20.45,10.94,0,17.93,7.34,17.93,19.66a37.19,37.19,0,0,1-.22,4.1H177.31C178.1,250.52,181.63,253,186.53,253Zm-9.36-15.62h14c-.07-5.54-2-9.22-6.84-9.22C180.33,228.13,177.67,231,177.16,237.34Z"/><path class="cls-2" d="M246.86,231.73V260h-9.72V233c0-2.66-.36-3.67-1.87-3.67-1.22,0-2.45.58-4,2.52V260h-8.06V233c0-2.66-.36-3.67-1.87-3.67-1.15,0-2.45.58-4,2.52V260h-9.86V221.79h8.28l.79,3.67c2.38-3.24,4.61-5,8-5a5.7,5.7,0,0,1,5.9,4.54c2.3-2.66,5-4.54,8.42-4.54C244.34,220.49,246.86,223.88,246.86,231.73Z"/><path class="cls-2" d="M318.93,261.25c-10,0-14.76-5.47-14.76-14.26V229.64h-8v-7.85h8v-8.28l11.38-1.37v9.65h12.31l-1.15,7.85H315.55V247c0,3.82,1.66,5.26,5.47,5.26a13.55,13.55,0,0,0,6.7-1.73l3.74,7.27A23.08,23.08,0,0,1,318.93,261.25Z"/><path class="cls-2" d="M375.38,240.8c0,12.82-6.84,20.45-18.58,20.45s-18.58-7.49-18.58-20.38c0-12.17,6.84-20.38,18.58-20.38S375.38,228.56,375.38,240.8Zm-25.42.07c0,8.5,2.16,12,6.84,12s6.84-3.53,6.84-12.1c0-8.28-2.16-11.88-6.84-11.88S350,232.52,350,240.87Z"/><path class="cls-2" d="M448.31,249.51c0-2.45-1.44-3.38-9.07-5.47-7-1.87-11.81-4.9-11.81-11.67s5.83-11.88,16.56-11.88c6.84,0,11.74,1.94,15.48,4.68l-4.54,6.7a20.73,20.73,0,0,0-10.58-3.24c-3.74,0-5.47.94-5.47,3s1.51,2.81,9,4.9,12.24,4.61,12.24,12.1c0,8.42-8.35,12.67-18.07,12.67-7.42,0-13.11-2.3-17-5.76l5.69-6.41a18.19,18.19,0,0,0,11.23,4C445.79,253.11,448.31,252,448.31,249.51Z"/><path class="cls-2" d="M481.22,247.93c0,3.74,1.44,4.9,3.89,4.9s4.9-1.58,6.48-4.18V221.79H503V260H493l-.5-4.46a14.14,14.14,0,0,1-11.74,5.69c-7.42,0-10.95-4.61-10.95-11.88V221.79h11.38Z"/><path class="cls-2" d="M548.18,240.8c0,11.81-5.4,20.45-14.69,20.45a11.62,11.62,0,0,1-9.07-4v17.5L513,276V221.79h10.08l.5,4.25a13.55,13.55,0,0,1,10.58-5.54C544.15,220.49,548.18,228.34,548.18,240.8Zm-23.76-7.42v16.13c1.58,2.3,3.24,3.38,5.62,3.38,4,0,6.41-3.31,6.41-12,0-9.5-2.16-12-5.76-12C528,228.92,526.07,230.57,524.42,233.38Z"/><path class="cls-2" d="M591.38,240.8c0,11.81-5.4,20.45-14.69,20.45a11.62,11.62,0,0,1-9.07-4v17.5L556.24,276V221.79h10.08l.5,4.25a13.55,13.55,0,0,1,10.58-5.54C587.34,220.49,591.38,228.34,591.38,240.8Zm-23.76-7.42v16.13c1.58,2.3,3.24,3.38,5.62,3.38,4,0,6.41-3.31,6.41-12,0-9.5-2.16-12-5.76-12C571.21,228.92,569.27,230.57,567.61,233.38Z"/><path class="cls-2" d="M634.58,240.8c0,12.82-6.84,20.45-18.58,20.45s-18.58-7.49-18.58-20.38c0-12.17,6.84-20.38,18.58-20.38S634.58,228.56,634.58,240.8Zm-25.42.07c0,8.5,2.16,12,6.84,12s6.84-3.53,6.84-12.1c0-8.28-2.16-11.88-6.84-11.88S609.16,232.52,609.16,240.87Z"/><path class="cls-2" d="M678.13,221.79l-2.09,16h-7.2v-7.06c-4.32.79-7.63,5-9.43,10.73v10.94H667V260H643v-7.63h5v-23h-5v-7.56h13.75l2,8.57c2.74-6.55,6.91-9.72,13-9.72A16.33,16.33,0,0,1,678.13,221.79Z"/><path class="cls-2" d="M707.73,261.25c-10,0-14.76-5.47-14.76-14.26V229.64h-8v-7.85h8v-8.28l11.38-1.37v9.65h12.31l-1.15,7.85H704.34V247c0,3.82,1.66,5.26,5.47,5.26a13.55,13.55,0,0,0,6.7-1.73l3.74,7.27A23.08,23.08,0,0,1,707.73,261.25Z"/><path class="cls-2" d="M200,346.43H187.75l-3.67-35.71-4,35.71H167.59l-5.4-49.9h11l1.73,39.82,4.1-34.06h10.23l3.82,34.06,2.45-39.82h10.3Z"/><path class="cls-2" d="M224.11,317h17.28v8.21H224.11v12.75h20.81v8.5H212.3v-49.9h32.62L243.69,305H224.11Z"/><path class="cls-2" d="M269.4,346.43H252.83v-49.9h15.84c10.23,0,19.08,3,19.08,12.75,0,6-4.25,9.5-9.15,10.73,5.33.86,11.31,3.82,11.31,11.81C289.92,343.33,280.2,346.43,269.4,346.43Zm-1.15-41.55h-3.6v11.59h4c5,0,7.2-1.8,7.2-6C275.88,306.53,273.5,304.88,268.24,304.88Zm1.22,19.51h-4.82v13.39H269c4.68,0,8.78-1,8.78-6.48C277.75,326.12,274.51,324.39,269.47,324.39Z"/><path class="cls-2" d="M313.75,329.79h-5.47v16.63H296.47v-49.9h15.7c13.61,0,21.31,5.33,21.31,16.27C333.48,324.39,325.48,329.79,313.75,329.79ZM312.38,305h-4.1V321.3H313c5.26,0,8.42-2.59,8.42-8.5C321.38,307.47,318.36,305,312.38,305Z"/><path class="cls-2" d="M406.77,338.65h9.79v7.78h-32v-7.78h10.8V316H385v-7.78h21.82Zm-.14-44.07a6.32,6.32,0,0,1-6.7,6.41c-4,0-6.77-2.74-6.77-6.41a6.74,6.74,0,0,1,13.47,0Z"/><path class="cls-2" d="M462.86,318.13v28.3h-9.72v-27c0-2.67-.36-3.67-1.87-3.67-1.22,0-2.45.58-4,2.52v28.15h-8.06v-27c0-2.67-.36-3.67-1.87-3.67-1.15,0-2.45.58-4,2.52v28.15h-9.86V308.19h8.28l.79,3.67c2.38-3.24,4.61-5,8-5a5.7,5.7,0,0,1,5.9,4.54c2.3-2.66,5-4.54,8.42-4.54C460.34,306.89,462.86,310.28,462.86,318.13Z"/><path class="cls-2" d="M504.55,340l-2.38,7.49c-4.46-.43-7.56-1.87-9.36-5-3,3.53-7.78,5.18-12.53,5.18-7.92,0-13-5-13-12,0-8.28,6.84-13,18.65-13h5.11v-1.37c0-4-2.66-5.9-7.56-5.9a37.35,37.35,0,0,0-10.51,2l-2.59-7.56a45.35,45.35,0,0,1,14.91-2.88c11.38,0,16.71,4.75,16.71,13.54v15C502,338.29,502.75,339.37,504.55,340Zm-13.46-4.68v-6.26h-2.81c-6.34,0-9.22,2-9.22,5.76,0,3,1.87,4.68,5.11,4.68A8.27,8.27,0,0,0,491.08,335.34Z"/><path class="cls-2" d="M549.62,310.42c-2.66,1.08-6.19,1.51-11,1.51,4.82,2.09,7.42,4.9,7.42,9.87,0,7.42-6.34,12.82-16.2,12.82a21.34,21.34,0,0,1-4.46-.43,2.45,2.45,0,0,0-1.22,2.16c0,1.15.5,2.3,4.18,2.3h6.34c8.86,0,14.54,4.68,14.54,11.09,0,7.85-6.91,12.67-20.45,12.67-14.69,0-18.51-4.75-18.51-12.31h10.08c0,3.31,1.44,4.83,8.71,4.83s8.86-1.87,8.86-4.39c0-2.23-1.73-3.82-5.54-3.82h-6c-8.35,0-11.81-3.53-11.81-7.56a8.67,8.67,0,0,1,4.25-7.27c-4.82-2.59-6.77-6-6.77-10.95,0-8.64,7.06-14,17.07-14a30.3,30.3,0,0,0,18-4.9Zm-26.14,10.37c0,4.18,2.3,6.55,5.83,6.55,3.75,0,5.83-2.3,5.83-6.7s-2-6.26-5.83-6.26C525.71,314.38,523.48,316.83,523.48,320.79Z"/><path class="cls-2" d="M575.32,339.37a18.18,18.18,0,0,0,9.79-3.17l4.54,6.19a23.07,23.07,0,0,1-15.27,5.26c-13.1,0-19.87-8.42-19.87-20.31,0-11.3,6.62-20.45,18.65-20.45,10.95,0,17.93,7.34,17.93,19.66a37.31,37.31,0,0,1-.22,4.1H566.1C566.89,336.92,570.42,339.37,575.32,339.37ZM566,323.74h14c-.07-5.54-2-9.22-6.84-9.22C569.13,314.53,566.46,317.41,566,323.74Z"/><path class="cls-2" d="M621.11,335.91c0-2.45-1.44-3.38-9.07-5.47-7-1.87-11.81-4.9-11.81-11.67s5.83-11.88,16.56-11.88c6.84,0,11.74,1.94,15.48,4.68l-4.54,6.7A20.73,20.73,0,0,0,617.15,315c-3.74,0-5.47.94-5.47,3s1.51,2.81,9,4.9,12.24,4.61,12.24,12.1c0,8.42-8.35,12.67-18.07,12.67-7.42,0-13.11-2.3-17-5.76l5.69-6.41a18.19,18.19,0,0,0,11.23,4C618.59,339.51,621.11,338.36,621.11,335.91Z"/><path class="cls-2" d="M378.4,394a7.52,7.52,0,1,1-7.56,7.56A7.5,7.5,0,0,1,378.4,394Zm0,25a7.42,7.42,0,0,1,7.49,7.42A7.53,7.53,0,1,1,378.4,419Z"/><path class="cls-2" d="M432.4,438.23l-6.55,6c-11.38-9.79-18.58-20.81-18.58-36.58s7.2-26.79,18.58-36.58l6.55,6c-9.65,10.58-13.61,18.72-13.61,30.6S422,426.92,432.4,438.23Z"/></svg>