<?xml version="1.0" encoding="utf-8"?>
<!-- Generator: Adobe Illustrator 20.1.0, SVG Export Plug-In . SVG Version: 6.00 Build 0)  -->
<svg version="1.1" id="Layer_1" xmlns="http://www.w3.org/2000/svg" xmlns:xlink="http://www.w3.org/1999/xlink" x="0px" y="0px"
	 viewBox="0 0 2048 2048" style="enable-background:new 0 0 2048 2048;" xml:space="preserve">
<style type="text/css">
	.st0{fill:#111111;}
</style>
<g>
	<title>logo</title>
	<path fill="#000" style="fill:var(--text-color, #000)" class="st0" d="M1268.3,310.9l-66.2-18.1c-8.5-2.8-16.9-2-25.1,2.7c-8.1,4.5-14,12-16.5,20.8L762.3,1694.4
		c-2.9,8.7-1.9,18.2,2.7,26.2c4.5,8.1,12,14,20.8,16.5l66.2,18.1c8.5,2.8,16.9,2,25.1-2.7c8.1-4.5,14-12,16.5-20.8l398.2-1378.2
		c2.9-8.7,1.9-18.2-2.7-26.2C1284.6,319.4,1277.1,313.4,1268.3,310.9z"/>
	<path fill="#000" style="fill:var(--text-color, #000)" class="st0" d="M671.5,579.9c0-9.3-3.6-17.4-10.7-24.6L607.5,502c-7.1-7.1-15.3-10.7-24.6-10.7s-17.4,3.6-24.6,10.7
		L60.9,999.4c-7.1,7.1-10.7,15.3-10.7,24.6c0,9.3,3.6,17.4,10.7,24.6L558.4,1546c7.1,7.1,15.3,10.7,24.6,10.7s17.4-3.6,24.6-10.7
		l53.4-53.4c7.1-7.1,10.7-15.3,10.7-24.6s-3.6-17.4-10.7-24.6L241.3,1024l419.5-419.5C668,597.3,671.5,589.2,671.5,579.9z"/>
	<path fill="#000" style="fill:var(--text-color, #000)" class="st0" d="M1993.1,999.4L1495.6,502c-7.1-7.1-15.3-10.7-24.6-10.7s-17.4,3.6-24.6,10.7l-53.4,53.4
		c-7.1,7.1-10.7,15.3-10.7,24.6s3.6,17.4,10.7,24.6l419.5,419.5l-419.5,419.5c-7.1,7.1-10.7,15.3-10.7,24.6s3.6,17.4,10.7,24.6
		l53.4,53.4c7.1,7.1,15.3,10.7,24.6,10.7s17.4-3.6,24.6-10.7l497.5-497.5c7.1-7.1,10.7-15.3,10.7-24.6
		C2003.8,1014.7,2000.2,1006.6,1993.1,999.4z"/>
</g>
</svg>
