<?xml version="1.0" encoding="utf-8"?>
<!-- Generator: Adobe Illustrator 20.1.0, SVG Export Plug-In . SVG Version: 6.00 Build 0)  -->
<svg version="1.1" xmlns="http://www.w3.org/2000/svg" xmlns:xlink="http://www.w3.org/1999/xlink" x="0px" y="0px"
	 viewBox="0 0 1680 2680" style="enable-background:new 0 0 1680 2680;" xml:space="preserve">
<style type="text/css">
	.st0{fill:#080808;}
	.st1{fill:#FFFFFF;}
	.st2{font-family:'FiraMono-Medium';}
	.st3{font-size:70px;}
	.st4{font-size:62px;}
	.st5{letter-spacing:11;}
	.st6{font-family:'FiraMono-Bold';}
	.st7{font-size:137px;}
</style>
<g id="Layer_2">
	<g id="Layer_1_1_">
		<rect class="st0" width="1680" height="2680"/>
	</g>
</g>
<g id="Layer_1">
	<text transform="matrix(1 0 0 1 1114.2568 170)" class="st1 st2 st3">markup.tips</text>
	<text transform="matrix(1 0 0 1 1324.2568 254)" class="st1 st2 st3">VOL 01</text>
	<g>
		<path class="st1" d="M1153.3,142.5V170h-6.9v-26.4c0-3.8-0.3-5.5-2.5-5.5c-1.8,0-3.6,1-5.5,3.7V170h-6.4v-26.4
			c0-3.8-0.3-5.5-2.5-5.5c-1.9,0-3.6,1-5.5,3.7V170h-7v-37h5.9l0.6,4c2.1-2.9,4.3-5,7.9-5c2.8,0,5.3,1.2,6.3,4.7
			c2.1-2.8,4.6-4.7,8.1-4.7C1150.2,132,1153.3,134.4,1153.3,142.5z"/>
		<path class="st1" d="M1193.6,165.6l-1.8,5.3c-3.6-0.4-6.3-1.9-7.6-5.1c-2.7,3.4-7.1,5.1-11.8,5.1c-7.6,0-12.2-4.6-12.2-11.5
			c0-7.7,6.3-12.1,17.6-12.1h5.2v-2.4c0-4.8-3-6.7-8.2-6.7c-2.5,0-6.1,0.6-9.8,1.9l-2-5.5c4.6-1.8,9.2-2.5,13-2.5
			c10,0,14.8,4.6,14.8,12.4V161C1190.8,163.8,1191.6,165,1193.6,165.6z M1183,160.4v-8.2h-4.3c-7.4,0-10.2,2.6-10.2,6.9
			c0,3.9,2.1,6,6.2,6C1177.9,165.2,1181.2,163.4,1183,160.4z"/>
		<path class="st1" d="M1236.3,133l-1.3,13.7h-5.6v-7.6c-5.3,0.1-9,4.3-11.2,11.6v13.7h7.4v5.6h-20.7v-5.6h5.5v-25.8h-5.5V133h11.4
			l1.4,8.5c2.8-6.2,6.7-9.5,13-9.5C1232.9,132.1,1234.6,132.5,1236.3,133z"/>
		<path class="st1" d="M1254.5,170h-7.8v-51.8l7.8-0.9V170z M1264.1,149.6l16.5,20.4h-9.6l-15.9-20.2L1270,133h9.1L1264.1,149.6z"/>
		<path class="st1" d="M1296.3,158.9c0,4.3,1.7,6.1,5.3,6.1c3.4,0,6.8-2.3,8.6-5.2V133h7.8v37h-6.8l-0.5-4.8
			c-2.7,3.7-7.3,5.7-11.6,5.7c-7.2,0-10.6-4.1-10.6-11.1V133h7.8L1296.3,158.9L1296.3,158.9z"/>
		<path class="st1" d="M1362,151.4c0,11.3-4.9,19.5-14.3,19.5c-3.8,0-7-1.3-9.4-4.1v17.4l-7.8,0.9V133h6.8l0.5,4.8
			c2.8-3.8,6.7-5.7,10.8-5.7C1358.3,132,1362,139.7,1362,151.4z M1338.3,143.4v17.3c1.8,2.7,4.3,4.1,7.3,4.1c5.3,0,8.1-4.1,8.1-13.3
			c0-9.5-2.5-13.4-7.4-13.4C1342.9,138.1,1340.2,140.5,1338.3,143.4z"/>
		<path class="st1" d="M1387.2,157.4c3.9,0,6.8,3,6.8,6.7c0,3.8-2.9,6.8-6.8,6.8c-3.8,0-6.7-3-6.7-6.8
			C1380.5,160.4,1383.4,157.4,1387.2,157.4z"/>
		<path class="st1" d="M1434.6,170.9c-8.6,0-13.2-4.8-13.2-12.1v-20h-8.2V133h8.2v-8.3l7.8-0.9v9.2h12.5l-0.9,5.7h-11.6v20
			c0,4,1.9,5.9,6.4,5.9c2.7,0,5-0.7,6.9-1.8l2.8,5.2C1442.6,169.8,1438.7,170.9,1434.6,170.9z"/>
		<path class="st1" d="M1476.7,164.3h10.1v5.7h-28.9v-5.7h11v-25.5h-10.6V133h18.5L1476.7,164.3L1476.7,164.3z M1476.4,119.9
			c0,2.8-2.1,4.9-5.1,4.9c-3.1,0-5.1-2.1-5.1-4.9s2-5,5.1-5C1474.3,114.9,1476.4,117.1,1476.4,119.9z"/>
		<path class="st1" d="M1530,151.4c0,11.3-4.9,19.5-14.3,19.5c-3.8,0-7-1.3-9.4-4.1v17.4l-7.8,0.9V133h6.8l0.5,4.8
			c2.8-3.8,6.7-5.7,10.8-5.7C1526.3,132,1530,139.7,1530,151.4z M1506.3,143.4v17.3c1.8,2.7,4.3,4.1,7.3,4.1c5.3,0,8.1-4.1,8.1-13.3
			c0-9.5-2.5-13.4-7.4-13.4C1510.9,138.1,1508.2,140.5,1506.3,143.4z"/>
		<path class="st1" d="M1561.9,160c0-3-1.2-4.4-8.8-6.4c-7.4-1.9-12.2-4.5-12.2-10.9s5.7-10.6,14.8-10.6c6.2,0,10.7,1.8,14.1,4.3
			l-3.4,5c-2.9-1.9-6.2-3.3-10.5-3.3c-5,0-7,1.6-7,4.1c0,2.8,2,3.9,9.4,5.9c7.2,2,12,4.5,12,11.5c0,8.1-7.8,11.5-16.3,11.5
			c-6.9,0-11.8-2.2-15.2-5.2l4.1-4.8c2.9,2.3,6.7,4,11.1,4C1558.8,165,1561.9,163.1,1561.9,160z"/>
		<path class="st1" d="M1357,205.7h8.3L1350,254h-9.2l-15.3-48.3h8.7l11.4,40.6L1357,205.7z"/>
		<path class="st1" d="M1387.3,254.9c-12.1,0-18.3-9.8-18.3-25c0-14.9,6.2-25.2,18.3-25.2s18.3,9.9,18.3,25.1
			C1405.6,244.8,1399.4,254.9,1387.3,254.9z M1387.3,211.1c-7.1,0-10,6.3-10,18.8s3.1,18.7,10,18.7c7.1,0,10-6.3,10-18.8
			C1397.3,217.4,1394.4,211.1,1387.3,211.1z"/>
		<path class="st1" d="M1416.7,205.7h8.1v41.5h21.7l-0.9,6.8h-28.9L1416.7,205.7L1416.7,205.7z"/>
		<path class="st1" d="M1529.7,229.8c0,16-5.6,25.1-16.5,25.1c-10.8,0-16.5-9.1-16.5-25.1s5.6-25.1,16.5-25.1
			S1529.7,213.8,1529.7,229.8z M1504.7,229.8c0,13.9,3.2,19.2,8.5,19.2c5.5,0,8.5-5.4,8.5-19.2c0-13.7-3.1-19-8.5-19
			C1507.8,210.7,1504.7,216.2,1504.7,229.8z M1517.9,229.8c0,2.6-2,4.6-4.6,4.6s-4.6-2-4.6-4.6c0-2.5,2-4.6,4.6-4.6
			C1515.9,225.3,1517.9,227.3,1517.9,229.8z"/>
		<path class="st1" d="M1571.4,247.8v6.2h-29.2v-6.2h11.8v-34.1l-10.7,6.5l-3.4-5.5l14.9-9.1h6.9v42.2H1571.4z"/>
	</g>
	<path class="st1" d="M163.7,1929.6l-6.1,6.1c-0.8,0.8-1.8,1.2-2.8,1.2c-1.1,0-2-0.4-2.8-1.2l-57.3-57.3c-0.8-0.8-1.2-1.8-1.2-2.8
		s0.4-2,1.2-2.8l57.3-57.3c0.8-0.8,1.8-1.2,2.8-1.2c1.1,0,2,0.4,2.8,1.2l6.1,6.1c0.8,0.8,1.2,1.8,1.2,2.8c0,1.1-0.4,2-1.2,2.8
		l-48.3,48.3l48.3,48.3c0.8,0.8,1.2,1.8,1.2,2.8C164.9,1927.9,164.5,1928.8,163.7,1929.6z M236.4,1798.4l-45.9,158.7
		c-0.3,1.1-1,1.9-1.9,2.4s-1.9,0.6-2.9,0.3l-7.6-2.1c-1.1-0.3-1.9-1-2.4-1.9s-0.6-1.9-0.3-3l45.9-158.7c0.3-1.1,1-1.9,1.9-2.4
		s1.9-0.6,2.9-0.3l7.6,2.1c1.1,0.3,1.9,1,2.4,1.9C236.6,1796.4,236.7,1797.4,236.4,1798.4z M317.1,1878.5l-57.3,57.3
		c-0.8,0.8-1.8,1.2-2.8,1.2c-1.1,0-2-0.4-2.8-1.2l-6.1-6.1c-0.8-0.8-1.2-1.8-1.2-2.8c0-1.1,0.4-2,1.2-2.8l48.3-48.3l-48.3-48.3
		c-0.8-0.8-1.2-1.8-1.2-2.8c0-1.1,0.4-2,1.2-2.8l6.1-6.1c0.8-0.8,1.8-1.2,2.8-1.2c1.1,0,2,0.4,2.8,1.2l57.3,57.3
		c0.8,0.8,1.2,1.8,1.2,2.8S318,1877.7,317.1,1878.5z"/>
	<text transform="matrix(1 0 0 1 106.9261 2483.5686)" class="st1 st2 st4 st5">written by jp devries</text>
	<text transform="matrix(1 0 0 1 106.9261 2575.5686)" class="st1 st2 st4 st5">edited by elias mason</text>
	<text transform="matrix(1 0 0 1 106.9263 2161.646)"><tspan x="0" y="0" class="st1 st6 st7">An Introduction to</tspan><tspan x="0" y="164.4" class="st1 st6 st7">Web Architecture</tspan></text>
</g>
</svg>
