<svg xmlns="http://www.w3.org/2000/svg"><symbol id="logo" viewBox="0 0 2048 2048"><style>.st0{fill:#111}</style><title>logo</title><path fill="var(--text-color,#000)" class="st0" d="M1268.3 310.9l-66.2-18.1c-8.5-2.8-16.9-2-25.1 2.7-8.1 4.5-14 12-16.5 20.8L762.3 1694.4c-2.9 8.7-1.9 18.2 2.7 26.2 4.5 8.1 12 14 20.8 16.5l66.2 18.1c8.5 2.8 16.9 2 25.1-2.7 8.1-4.5 14-12 16.5-20.8l398.2-1378.2c2.9-8.7 1.9-18.2-2.7-26.2-4.5-7.9-12-13.9-20.8-16.4zM671.5 579.9c0-9.3-3.6-17.4-10.7-24.6L607.5 502c-7.1-7.1-15.3-10.7-24.6-10.7s-17.4 3.6-24.6 10.7L60.9 999.4c-7.1 7.1-10.7 15.3-10.7 24.6s3.6 17.4 10.7 24.6L558.4 1546c7.1 7.1 15.3 10.7 24.6 10.7s17.4-3.6 24.6-10.7l53.4-53.4c7.1-7.1 10.7-15.3 10.7-24.6s-3.6-17.4-10.7-24.6L241.3 1024l419.5-419.5c7.2-7.2 10.7-15.3 10.7-24.6zM1993.1 999.4L1495.6 502c-7.1-7.1-15.3-10.7-24.6-10.7s-17.4 3.6-24.6 10.7l-53.4 53.4c-7.1 7.1-10.7 15.3-10.7 24.6s3.6 17.4 10.7 24.6l419.5 419.5-419.5 419.5c-7.1 7.1-10.7 15.3-10.7 24.6s3.6 17.4 10.7 24.6l53.4 53.4c7.1 7.1 15.3 10.7 24.6 10.7s17.4-3.6 24.6-10.7l497.5-497.5c7.1-7.1 10.7-15.3 10.7-24.6 0-9.4-3.6-17.5-10.7-24.7z"/></symbol></svg>