<svg xmlns="http://www.w3.org/2000/svg" viewBox="0 0 1680 2680"><title>cover</title><g id="Layer_2" data-name="Layer 2"><g id="Layer_2-2" data-name="Layer 2"><g id="Layer_1" data-name="Layer 1"><rect width="1680" height="2680" fill="#080808"/></g></g></g><g id="Layer_1-2" data-name="Layer 1"><g style="isolation:isolate"><path d="M1153.32,142.56V170h-6.93V143.61c0-3.85-.28-5.46-2.45-5.46-1.82,0-3.64,1.05-5.46,3.71V170h-6.37V143.61c0-3.85-.28-5.46-2.45-5.46-1.89,0-3.64,1.05-5.46,3.71V170h-7V133h5.88l.56,4c2.1-2.94,4.34-5,7.91-5a6,6,0,0,1,6.3,4.69c2.1-2.8,4.55-4.69,8.12-4.69C1150.17,132.06,1153.32,134.37,1153.32,142.56Z" fill="#fff"/><path d="M1193.57,165.59l-1.82,5.32c-3.57-.42-6.3-1.89-7.63-5.11-2.73,3.43-7.07,5.11-11.76,5.11-7.56,0-12.18-4.62-12.18-11.48,0-7.7,6.3-12.11,17.57-12.11H1183v-2.38c0-4.83-3-6.72-8.19-6.72a30.92,30.92,0,0,0-9.8,1.89l-2-5.53a37.4,37.4,0,0,1,13-2.52c9.94,0,14.77,4.62,14.77,12.39V161C1190.77,163.84,1191.61,165,1193.57,165.59ZM1183,160.41v-8.19h-4.34c-7.35,0-10.22,2.59-10.22,6.93,0,3.92,2.1,6,6.23,6A9.89,9.89,0,0,0,1183,160.41Z" fill="#fff"/><path d="M1236.27,133l-1.33,13.65h-5.6v-7.56c-5.25.14-9,4.34-11.2,11.55V164.4h7.42V170h-20.72v-5.6h5.46V138.64h-5.46V133h11.41l1.4,8.54c2.8-6.16,6.65-9.45,13-9.45A16.77,16.77,0,0,1,1236.27,133Z" fill="#fff"/><path d="M1254.54,170h-7.84V118.19l7.84-.91Zm9.59-20.44L1280.58,170H1271l-15.89-20.23L1269.94,133h9.1Z" fill="#fff"/><path d="M1296.33,158.87c0,4.34,1.75,6.09,5.25,6.09s6.79-2.31,8.61-5.18V133H1318v37h-6.79l-.49-4.76a14.55,14.55,0,0,1-11.62,5.67c-7.21,0-10.64-4.13-10.64-11.06V133h7.84Z" fill="#fff"/><path d="M1362,151.45c0,11.27-4.9,19.46-14.28,19.46a11.85,11.85,0,0,1-9.38-4.06v17.36l-7.84.91V133h6.79l.49,4.76a13.28,13.28,0,0,1,10.78-5.74C1358.28,132.06,1362,139.69,1362,151.45Zm-23.66-8.05v17.29a8.51,8.51,0,0,0,7.28,4.13c5.32,0,8.12-4.06,8.12-13.3,0-9.52-2.45-13.44-7.35-13.44C1342.88,138.08,1340.14,140.53,1338.32,143.4Z" fill="#fff"/><path d="M1387.19,157.4a6.76,6.76,0,1,1-6.72,6.72A6.69,6.69,0,0,1,1387.19,157.4Z" fill="#fff"/><path d="M1434.58,170.91c-8.61,0-13.16-4.83-13.16-12.11v-20h-8.19V133h8.19v-8.26l7.84-.91V133h12.53l-.91,5.74h-11.62v20c0,4,1.89,5.88,6.44,5.88a14,14,0,0,0,6.86-1.75l2.8,5.18A20.54,20.54,0,0,1,1434.58,170.91Z" fill="#fff"/><path d="M1476.64,164.26h10.08V170h-28.91v-5.74h11V138.78h-10.64V133h18.48Zm-.28-44.38a5.11,5.11,0,1,1-5.11-5A4.89,4.89,0,0,1,1476.37,119.88Z" fill="#fff"/><path d="M1530,151.45c0,11.27-4.9,19.46-14.28,19.46a11.85,11.85,0,0,1-9.38-4.06v17.36l-7.84.91V133h6.79l.49,4.76a13.28,13.28,0,0,1,10.78-5.74C1526.27,132.06,1530,139.69,1530,151.45Zm-23.66-8.05v17.29a8.5,8.5,0,0,0,7.28,4.13c5.32,0,8.12-4.06,8.12-13.3,0-9.52-2.45-13.44-7.35-13.44C1510.87,138.08,1508.14,140.53,1506.32,143.4Z" fill="#fff"/><path d="M1561.9,160c0-3-1.19-4.41-8.82-6.37-7.35-1.89-12.18-4.48-12.18-10.92s5.67-10.64,14.77-10.64a23,23,0,0,1,14.07,4.27l-3.36,5a18.37,18.37,0,0,0-10.5-3.29c-5,0-7,1.61-7,4.06,0,2.8,2,3.85,9.38,5.88s12,4.48,12,11.48c0,8.05-7.84,11.48-16.31,11.48-6.86,0-11.76-2.24-15.19-5.18l4.13-4.76a17.72,17.72,0,0,0,11.06,4C1558.82,165,1561.9,163.07,1561.9,160Z" fill="#fff"/></g><g style="isolation:isolate"><path d="M1357,205.7h8.26L1349.88,254h-9.24l-15.33-48.3H1334l11.41,40.6Z" fill="#fff"/><path d="M1387.26,254.91c-12.11,0-18.34-9.8-18.34-25,0-14.91,6.23-25.2,18.34-25.2s18.34,9.94,18.34,25.13C1405.6,244.76,1399.37,254.91,1387.26,254.91Zm0-43.82c-7.14,0-10,6.3-10,18.83s3.08,18.69,10,18.69c7.14,0,10-6.3,10-18.76S1394.4,211.09,1387.26,211.09Z" fill="#fff"/><path d="M1416.66,205.7h8.05v41.51h21.7l-.91,6.79h-28.84Z" fill="#fff"/><path d="M1529.71,229.78c0,16-5.6,25.13-16.45,25.13s-16.45-9.1-16.45-25.13,5.6-25.06,16.45-25.06S1529.71,213.82,1529.71,229.78Zm-25,0c0,13.86,3.15,19.18,8.54,19.18s8.54-5.39,8.54-19.18-3.08-19-8.54-19S1504.72,216.2,1504.72,229.78Zm13.16.07a4.59,4.59,0,1,1-4.62-4.55A4.53,4.53,0,0,1,1517.88,229.85Z" fill="#fff"/><path d="M1571.36,247.84V254h-29.19v-6.16h11.76V213.75l-10.64,6.51-3.36-5.46,14.84-9.1h6.93v42.14Z" fill="#fff"/></g><path d="M1153.3,142.5V170h-6.9V143.6c0-3.8-.3-5.5-2.5-5.5-1.8,0-3.6,1-5.5,3.7V170H1132V143.6c0-3.8-.3-5.5-2.5-5.5-1.9,0-3.6,1-5.5,3.7V170h-7V133h5.9l.6,4c2.1-2.9,4.3-5,7.9-5a6,6,0,0,1,6.3,4.7c2.1-2.8,4.6-4.7,8.1-4.7C1150.2,132,1153.3,134.4,1153.3,142.5Z" fill="#fff"/><path d="M1193.6,165.6l-1.8,5.3c-3.6-.4-6.3-1.9-7.6-5.1-2.7,3.4-7.1,5.1-11.8,5.1-7.6,0-12.2-4.6-12.2-11.5,0-7.7,6.3-12.1,17.6-12.1h5.2v-2.4c0-4.8-3-6.7-8.2-6.7a31.54,31.54,0,0,0-9.8,1.9l-2-5.5a36.3,36.3,0,0,1,13-2.5c10,0,14.8,4.6,14.8,12.4V161C1190.8,163.8,1191.6,165,1193.6,165.6Zm-10.6-5.2v-8.2h-4.3c-7.4,0-10.2,2.6-10.2,6.9,0,3.9,2.1,6,6.2,6A9.58,9.58,0,0,0,1183,160.4Z" fill="#fff"/><path d="M1236.3,133l-1.3,13.7h-5.6v-7.6c-5.3.1-9,4.3-11.2,11.6v13.7h7.4V170h-20.7v-5.6h5.5V138.6h-5.5V133h11.4l1.4,8.5c2.8-6.2,6.7-9.5,13-9.5A22.42,22.42,0,0,1,1236.3,133Z" fill="#fff"/><path d="M1254.5,170h-7.8V118.2l7.8-.9Zm9.6-20.4,16.5,20.4H1271l-15.9-20.2L1270,133h9.1Z" fill="#fff"/><path d="M1296.3,158.9c0,4.3,1.7,6.1,5.3,6.1,3.4,0,6.8-2.3,8.6-5.2V133h7.8v37h-6.8l-.5-4.8a14.58,14.58,0,0,1-11.6,5.7c-7.2,0-10.6-4.1-10.6-11.1V133h7.8v25.9Z" fill="#fff"/><path d="M1362,151.4c0,11.3-4.9,19.5-14.3,19.5a11.8,11.8,0,0,1-9.4-4.1v17.4l-7.8.9V133h6.8l.5,4.8a13.26,13.26,0,0,1,10.8-5.7C1358.3,132,1362,139.7,1362,151.4Zm-23.7-8v17.3a8.49,8.49,0,0,0,7.3,4.1c5.3,0,8.1-4.1,8.1-13.3,0-9.5-2.5-13.4-7.4-13.4C1342.9,138.1,1340.2,140.5,1338.3,143.4Z" fill="#fff"/><path d="M1387.2,157.4a6.75,6.75,0,1,1-6.7,6.7A6.66,6.66,0,0,1,1387.2,157.4Z" fill="#fff"/><path d="M1434.6,170.9c-8.6,0-13.2-4.8-13.2-12.1v-20h-8.2V133h8.2v-8.3l7.8-.9V133h12.5l-.9,5.7h-11.6v20c0,4,1.9,5.9,6.4,5.9a13.59,13.59,0,0,0,6.9-1.8l2.8,5.2A19.8,19.8,0,0,1,1434.6,170.9Z" fill="#fff"/><path d="M1476.7,164.3h10.1V170h-28.9v-5.7h11V138.8h-10.6V133h18.5l-.1,31.3Zm-.3-44.4a4.84,4.84,0,0,1-5.1,4.9,4.78,4.78,0,0,1-5.1-4.9,4.86,4.86,0,0,1,5.1-5A4.92,4.92,0,0,1,1476.4,119.9Z" fill="#fff"/><path d="M1530,151.4c0,11.3-4.9,19.5-14.3,19.5a11.8,11.8,0,0,1-9.4-4.1v17.4l-7.8.9V133h6.8l.5,4.8a13.26,13.26,0,0,1,10.8-5.7C1526.3,132,1530,139.7,1530,151.4Zm-23.7-8v17.3a8.49,8.49,0,0,0,7.3,4.1c5.3,0,8.1-4.1,8.1-13.3,0-9.5-2.5-13.4-7.4-13.4C1510.9,138.1,1508.2,140.5,1506.3,143.4Z" fill="#fff"/><path d="M1561.9,160c0-3-1.2-4.4-8.8-6.4-7.4-1.9-12.2-4.5-12.2-10.9s5.7-10.6,14.8-10.6a23,23,0,0,1,14.1,4.3l-3.4,5a18.46,18.46,0,0,0-10.5-3.3c-5,0-7,1.6-7,4.1,0,2.8,2,3.9,9.4,5.9,7.2,2,12,4.5,12,11.5,0,8.1-7.8,11.5-16.3,11.5-6.9,0-11.8-2.2-15.2-5.2l4.1-4.8a17.84,17.84,0,0,0,11.1,4C1558.8,165,1561.9,163.1,1561.9,160Z" fill="#fff"/><path d="M1357,205.7h8.3L1350,254h-9.2l-15.3-48.3h8.7l11.4,40.6Z" fill="#fff"/><path d="M1387.3,254.9c-12.1,0-18.3-9.8-18.3-25,0-14.9,6.2-25.2,18.3-25.2s18.3,9.9,18.3,25.1C1405.6,244.8,1399.4,254.9,1387.3,254.9Zm0-43.8c-7.1,0-10,6.3-10,18.8s3.1,18.7,10,18.7c7.1,0,10-6.3,10-18.8S1394.4,211.1,1387.3,211.1Z" fill="#fff"/><path d="M1416.7,205.7h8.1v41.5h21.7l-.9,6.8h-28.9V205.7Z" fill="#fff"/><path d="M1529.7,229.8c0,16-5.6,25.1-16.5,25.1s-16.5-9.1-16.5-25.1,5.6-25.1,16.5-25.1S1529.7,213.8,1529.7,229.8Zm-25,0c0,13.9,3.2,19.2,8.5,19.2,5.5,0,8.5-5.4,8.5-19.2s-3.1-19-8.5-19S1504.7,216.2,1504.7,229.8Zm13.2,0a4.6,4.6,0,1,1-9.2,0,4.59,4.59,0,0,1,4.6-4.6A4.65,4.65,0,0,1,1517.9,229.8Z" fill="#fff"/><path d="M1571.4,247.8V254h-29.2v-6.2H1554V213.7l-10.7,6.5-3.4-5.5,14.9-9.1h6.9v42.2Z" fill="#fff"/><path d="M236.4,1930.07l-45.9,158.7a3.86,3.86,0,0,1-1.9,2.4,3.67,3.67,0,0,1-2.9.3l-7.6-2.1a3.89,3.89,0,0,1-2.7-4.9l45.9-158.7a3.86,3.86,0,0,1,1.9-2.4,3.67,3.67,0,0,1,2.9-.3l7.6,2.1a3.86,3.86,0,0,1,2.4,1.9A4,4,0,0,1,236.4,1930.07Zm-72.7,131.2-6.1,6.1a4,4,0,0,1-2.8,1.2,3.78,3.78,0,0,1-2.8-1.2l-57.3-57.3a3.87,3.87,0,0,1,0-5.6l57.3-57.3a4,4,0,0,1,2.8-1.2,3.78,3.78,0,0,1,2.8,1.2l6.1,6.1a4,4,0,0,1,1.2,2.8,3.78,3.78,0,0,1-1.2,2.8l-48.3,48.3,48.3,48.3a4.1,4.1,0,0,1,0,5.8Zm153.4-51.1-57.3,57.3a4,4,0,0,1-2.8,1.2,3.78,3.78,0,0,1-2.8-1.2l-6.1-6.1a4,4,0,0,1-1.2-2.8,3.78,3.78,0,0,1,1.2-2.8l48.3-48.3-48.3-48.3a4,4,0,0,1-1.2-2.8,3.78,3.78,0,0,1,1.2-2.8l6.1-6.1a4,4,0,0,1,2.8-1.2,3.78,3.78,0,0,1,2.8,1.2l57.3,57.3a4,4,0,0,1,1.2,2.8A3.2,3.2,0,0,1,317.1,2010.17Z" fill="#fff"/><g style="isolation:isolate"><path d="M122.18,2460.44a13.16,13.16,0,0,1,9.05-3.84c6.63,0,10.11,4.65,10.11,12.83,0,9.49-4,22.19-19.22,22.19a36,36,0,0,1-13.52-2.73l6.2-44.33,9.73-1.05Zm-.93,7.13L119,2483.69a10.78,10.78,0,0,0,4.15.81c6.14,0,8.31-8.68,8.31-14.88,0-4.59-1.74-5.83-4-5.83S123,2465.21,121.25,2467.57Z" fill="#fff"/><path d="M172.89,2490.69c-3.66,8.31-10.17,13.08-20.4,13.64l-.25-6.88c6.51-.81,9.24-2.73,11.72-6.94l-3.47.06-5.27-32.92h10l2.17,26.6,9.92-26.6h10.11Z" fill="#fff"/><path d="M232.1,2487c-1.49,10.73-7.38,14.51-15.37,17.36l-2.42-7.07c4.71-1.8,7.32-3.91,8.12-9.92l4.15-29.7h9.61Zm6.63-40.86a6.21,6.21,0,0,1-6.32,5.33,4.83,4.83,0,0,1-5-5.77,6.29,6.29,0,0,1,6.26-5.39A4.86,4.86,0,0,1,238.74,2446.12Z" fill="#fff"/><path d="M283.06,2469.43c0,9.49-4.34,22.19-17.42,22.19a16.71,16.71,0,0,1-6-.93l-1.86,12.65-9.61,1.05,6.51-46.75h8.49v3.66c3.35-3.6,6.7-4.71,9.73-4.71C279.65,2456.59,283.06,2461.24,283.06,2469.43ZM263,2467.57l-2.23,16.12a10.55,10.55,0,0,0,4.15.81c6.08,0,8.31-8.68,8.31-14.88,0-4.59-1.74-5.83-4-5.83S264.84,2465.21,263,2467.57Z" fill="#fff"/><path d="M358,2444.57l-6.45,46H343l.06-4.71c-2.11,3.16-5.33,5.77-9.8,5.77-7,0-10.35-5-10.35-13.27,0-9,4.22-21.76,16.06-21.76a9.68,9.68,0,0,1,7.25,3.16l2.23-16.18Zm-25.11,33.85c0,4.65,1.55,6,3.66,6,2.73,0,5-2.79,7.07-6.08l1.74-12.21a5.32,5.32,0,0,0-4.59-2.42C334.65,2463.72,332.91,2473,332.91,2478.42Z" fill="#fff"/><path d="M380,2478.6c.25,4.34,2.6,5.83,5.83,5.83,2.79,0,5.33-1,8.37-3l3.47,5.83a22.11,22.11,0,0,1-13.08,4.4c-9.61,0-14.32-5.58-14.32-13.95,0-8.93,4.84-21.08,18.66-21.08,8,0,12.15,4,12.15,9C401.11,2474.82,390.32,2477.61,380,2478.6Zm11.35-12.46c0-1.49-.74-3-3.35-3-4.59,0-6.76,4.84-7.56,9.55C388.65,2472,391.38,2468.93,391.38,2466.14Z" fill="#fff"/><path d="M431.43,2490.57H419.84l-5.77-32.92h10.35l2.23,25.48,9.24-25.48h10.17Z" fill="#fff"/><path d="M481.21,2457.21l-2.79,9.42a10.43,10.43,0,0,0-2.73-.43c-4.09,0-6.32,3.91-8.12,9.11l-2.17,15.25H455.8l4.59-32.92h8.37l-.12,6.14c2.23-4.53,5.89-7.07,9.3-7.07A10.77,10.77,0,0,1,481.21,2457.21Z" fill="#fff"/><path d="M500.68,2490.57h-9.61l4.59-32.92h9.61Zm7.13-44.45a6.21,6.21,0,0,1-6.32,5.33,4.83,4.83,0,0,1-5-5.77,6.29,6.29,0,0,1,6.26-5.39A4.86,4.86,0,0,1,507.81,2446.12Z" fill="#fff"/><path d="M529.14,2478.6c.25,4.34,2.6,5.83,5.83,5.83,2.79,0,5.33-1,8.37-3l3.47,5.83a22.11,22.11,0,0,1-13.08,4.4c-9.61,0-14.32-5.58-14.32-13.95,0-8.93,4.84-21.08,18.66-21.08,8,0,12.15,4,12.15,9C550.22,2474.82,539.43,2477.61,529.14,2478.6Zm11.35-12.46c0-1.49-.74-3-3.35-3-4.59,0-6.76,4.84-7.56,9.55C537.76,2472,540.49,2468.93,540.49,2466.14Z" fill="#fff"/><path d="M590.7,2460.81l-4.28,5.27a14,14,0,0,0-7.75-2.48c-2.91,0-4.34,1.05-4.34,2.67s1.3,2.29,6.32,3.91c5.58,1.8,8.56,4.83,8.56,10,0,6.14-4.59,11.47-14.76,11.47-5.89,0-10.85-2.29-13.7-5.39l4.9-5.08a13.23,13.23,0,0,0,8.87,3.47c3.41,0,5.08-1.49,5.08-3.29,0-2.17-1.3-2.79-6.51-4.59-5.64-1.92-8.37-4.65-8.37-9.55,0-5.64,4.84-10.6,13.89-10.6A18.4,18.4,0,0,1,590.7,2460.81Z" fill="#fff"/></g><g style="isolation:isolate"><path d="M115.33,2545.26c.14,3.7,2.06,4.94,4.75,4.94a11.48,11.48,0,0,0,6.58-2.35l2.5,4.13a16.7,16.7,0,0,1-9.89,3.36c-7.15,0-10.75-4.22-10.75-10.66,0-7,3.65-16.32,14.11-16.32,6,0,9.07,3.12,9.07,6.86C131.7,2542.33,123.54,2544.44,115.33,2545.26Zm9.55-9.7c0-1.15-.62-2.54-2.83-2.54-3.94,0-5.76,4.08-6.38,8C122.24,2540.41,124.88,2538.25,124.88,2535.56Z" fill="#fff"/><path d="M169.23,2519l-5,35.57h-6l0-3.79a9,9,0,0,1-7.58,4.56c-5.38,0-8-3.94-8-10.22,0-6.86,3.22-16.75,12.29-16.75a7.57,7.57,0,0,1,5.81,2.64l1.78-12.72Zm-19.49,26.26c0,3.74,1.25,5,3.17,5,2.35,0,4.18-2.21,5.9-4.94l1.39-9.75a4.42,4.42,0,0,0-3.94-2.16C151.18,2533.4,149.74,2540.79,149.74,2545.26Z" fill="#fff"/><path d="M186.08,2554.57h-6.72l3.55-25.44h6.72Zm5.52-34.37a4.39,4.39,0,0,1-4.46,3.79,3.5,3.5,0,0,1-3.65-4.18A4.44,4.44,0,0,1,188,2516,3.44,3.44,0,0,1,191.6,2520.2Z" fill="#fff"/><path d="M209.55,2546.55c-.34,2.5.24,3.31,1.87,3.31a6.36,6.36,0,0,0,3.07-.91l1.82,4.51a13.26,13.26,0,0,1-6.67,1.87c-5.33,0-7.58-3.17-6.82-8.83l1.78-12.58h-3.7l.62-4.8h4l1.58-5.71,5.71-.67-.86,6.38h5.81l-1.39,4.8h-5.09Z" fill="#fff"/><path d="M233.89,2545.26c.14,3.7,2.06,4.94,4.75,4.94a11.48,11.48,0,0,0,6.58-2.35l2.5,4.13a16.7,16.7,0,0,1-9.89,3.36c-7.15,0-10.75-4.22-10.75-10.66,0-7,3.65-16.32,14.11-16.32,6,0,9.07,3.12,9.07,6.86C250.26,2542.33,242.09,2544.44,233.89,2545.26Zm9.55-9.7c0-1.15-.62-2.54-2.83-2.54-3.94,0-5.76,4.08-6.38,8C240.8,2540.41,243.44,2538.25,243.44,2535.56Z" fill="#fff"/><path d="M287.79,2519l-5,35.57h-6l0-3.79a9,9,0,0,1-7.58,4.56c-5.38,0-8-3.94-8-10.22,0-6.86,3.22-16.75,12.29-16.75a7.57,7.57,0,0,1,5.81,2.64l1.78-12.72Zm-19.49,26.26c0,3.74,1.25,5,3.17,5,2.35,0,4.18-2.21,5.9-4.94l1.39-9.75a4.42,4.42,0,0,0-3.94-2.16C269.74,2533.4,268.3,2540.79,268.3,2545.26Z" fill="#fff"/><path d="M327.63,2531.38a10.14,10.14,0,0,1,7.06-3c5.09,0,7.78,3.6,7.78,9.94,0,7.3-3.17,17-14.54,17a27,27,0,0,1-10.08-2l4.85-34.32,6.77-.77Zm-.72,5.14-1.82,13.15a10.12,10.12,0,0,0,3.5.62c5.14,0,7-7,7-12,0-3.74-1.44-4.9-3.41-4.9S328.44,2534.69,326.91,2536.52Z" fill="#fff"/><path d="M366.7,2554.71c-2.74,6.19-7.49,9.89-15.17,10.42l-.19-4.9c5.09-.67,7.1-2.26,9.12-5.76l-2.5.1-4.22-25.44h7l2.11,20.88,8.21-20.88h7Z" fill="#fff"/><path d="M412.83,2545.26c.14,3.7,2.06,4.94,4.75,4.94a11.48,11.48,0,0,0,6.58-2.35l2.5,4.13a16.7,16.7,0,0,1-9.89,3.36c-7.15,0-10.75-4.22-10.75-10.66,0-7,3.65-16.32,14.11-16.32,6,0,9.07,3.12,9.07,6.86C429.2,2542.33,421,2544.44,412.83,2545.26Zm9.55-9.7c0-1.15-.62-2.54-2.83-2.54-3.94,0-5.76,4.08-6.38,8C419.74,2540.41,422.38,2538.25,422.38,2535.56Z" fill="#fff"/><path d="M447.34,2548.09c-.19,1.34.19,1.82,1.06,1.82a4,4,0,0,0,1.34-.34l.91,4.85a12,12,0,0,1-4.51.91c-4,0-6.14-2.5-5.52-7.2l4.13-29.14,6.77-.77Z" fill="#fff"/><path d="M469,2554.57h-6.72l3.55-25.44h6.72Zm5.52-34.37a4.39,4.39,0,0,1-4.46,3.79,3.5,3.5,0,0,1-3.65-4.18A4.44,4.44,0,0,1,471,2516,3.44,3.44,0,0,1,474.56,2520.2Z" fill="#fff"/><path d="M508.59,2530.9l-2.5,16.71a10.26,10.26,0,0,0-.1,1.1,1.93,1.93,0,0,0,1.44,2.06l-2,4.46c-2.74-.29-4.9-1.49-5.52-4.22-1.82,2.54-4.27,4.32-7.54,4.32-5.47,0-8.26-4-8.26-10,0-7.2,3.79-16.95,14.35-16.95A21.21,21.21,0,0,1,508.59,2530.9Zm-17.47,14.4c0,3.7,1.34,4.94,3.31,4.94s3.65-1.49,5.23-3.79l1.92-12.63a8.71,8.71,0,0,0-3.22-.53C493,2533.3,491.12,2540.17,491.12,2545.3Z" fill="#fff"/><path d="M540.51,2531.57l-3,3.74a10.62,10.62,0,0,0-6-2c-2.45,0-3.79,1-3.79,2.4s1.2,2,4.94,3.26c4.42,1.39,6.77,3.7,6.77,7.68,0,4.94-4,8.69-11.19,8.69a14.11,14.11,0,0,1-10.32-4.08l3.5-3.6a10.24,10.24,0,0,0,6.91,2.69c3.07,0,4.32-1.49,4.32-2.93,0-1.87-1.06-2.45-5.09-3.79-4.51-1.49-6.58-3.6-6.58-7.3,0-4.13,3.55-8,10.51-8A14,14,0,0,1,540.51,2531.57Z" fill="#fff"/><path d="M607.18,2536.18l-2.59,18.39h-6.67l2.4-17c.43-3-.48-3.55-1.73-3.55-1.92,0-3.79,2.59-5.47,6l-2.06,14.54h-6.67l2.4-17c.43-3-.53-3.55-1.78-3.55-1.87,0-3.84,2.64-5.42,6.24l-2,14.35h-6.72l3.55-25.44h5.81l-.19,4.32c2.11-3.12,4.85-5.09,8-5.09a5.34,5.34,0,0,1,5.62,4.85c2.11-3,4.94-4.85,8-4.85C605.6,2528.36,607.85,2531.33,607.18,2536.18Z" fill="#fff"/><path d="M643.9,2530.9l-2.5,16.71a10.38,10.38,0,0,0-.1,1.1,1.93,1.93,0,0,0,1.44,2.06l-2,4.46c-2.74-.29-4.9-1.49-5.52-4.22-1.82,2.54-4.27,4.32-7.54,4.32-5.47,0-8.26-4-8.26-10,0-7.2,3.79-16.95,14.35-16.95A21.21,21.21,0,0,1,643.9,2530.9Zm-17.47,14.4c0,3.7,1.34,4.94,3.31,4.94s3.65-1.49,5.23-3.79l1.92-12.63a8.71,8.71,0,0,0-3.22-.53C628.35,2533.3,626.43,2540.17,626.43,2545.3Z" fill="#fff"/><path d="M675.82,2531.57l-3,3.74a10.62,10.62,0,0,0-6-2c-2.45,0-3.79,1-3.79,2.4s1.2,2,4.94,3.26c4.42,1.39,6.77,3.7,6.77,7.68,0,4.94-4,8.69-11.19,8.69a14.11,14.11,0,0,1-10.32-4.08l3.5-3.6a10.24,10.24,0,0,0,6.91,2.69c3.07,0,4.32-1.49,4.32-2.93,0-1.87-1.06-2.45-5.09-3.79-4.51-1.49-6.58-3.6-6.58-7.3,0-4.13,3.55-8,10.51-8A14,14,0,0,1,675.82,2531.57Z" fill="#fff"/><path d="M710.86,2539.11c0,6.82-3.41,16.22-13.92,16.22-6.67,0-10.42-4.08-10.42-10.75,0-6.91,3.41-16.23,13.92-16.23C707.11,2528.36,710.91,2532.49,710.86,2539.11Zm-17.43,6c0,3.6,1.3,5.18,3.94,5.18,5.38,0,6.58-7.49,6.58-11.62,0-3.6-1.34-5.18-3.94-5.18C694.59,2533.45,693.43,2540.94,693.43,2545.06Z" fill="#fff"/><path d="M746.09,2536.28l-2.54,18.29h-6.72l2.4-17c.38-2.83-.48-3.55-1.78-3.55-2.26,0-4.37,2.69-6.24,6.29l-2,14.31h-6.72l3.55-25.44h5.81l-.19,4.61c2.21-3.22,5.23-5.38,8.69-5.38C744.51,2528.36,746.81,2531.33,746.09,2536.28Z" fill="#fff"/></g><g style="isolation:isolate"><path d="M144.24,2213.24l-1.82,5.32c-3.57-.42-6.3-1.89-7.63-5.11-2.73,3.43-7.07,5.11-11.76,5.11-7.56,0-12.18-4.62-12.18-11.48,0-7.7,6.3-12.11,17.57-12.11h5.25v-2.38c0-4.83-3-6.72-8.19-6.72a30.92,30.92,0,0,0-9.8,1.89l-2-5.53a37.4,37.4,0,0,1,13-2.52c9.94,0,14.77,4.62,14.77,12.39v16.52C141.44,2211.49,142.28,2212.61,144.24,2213.24Zm-10.57-5.18v-8.19h-4.34c-7.35,0-10.22,2.59-10.22,6.93,0,3.92,2.1,6,6.23,6A9.89,9.89,0,0,0,133.67,2208.05Z" fill="#fff"/><path d="M155.16,2180.68h6.79l.56,4.83a15.46,15.46,0,0,1,12-5.81c6.86,0,10.29,4.06,10.29,11v27h-7.84v-23c0-6.44-.77-8.89-5.25-8.89-3.64,0-6.72,2.59-8.68,5.39v26.53h-7.84Z" fill="#fff"/><path d="M259.32,2211.91H269.4v5.74H240.48v-5.74h11v-25.48H240.83v-5.74h18.48Zm-.28-44.38a5.11,5.11,0,1,1-5.11-5A4.89,4.89,0,0,1,259,2167.52Z" fill="#fff"/><path d="M281.15,2180.68h6.79l.56,4.83a15.46,15.46,0,0,1,12-5.81c6.86,0,10.29,4.06,10.29,11v27h-7.84v-23c0-6.44-.77-8.89-5.25-8.89-3.64,0-6.72,2.59-8.68,5.39v26.53h-7.84Z" fill="#fff"/><path d="M343.25,2218.56c-8.61,0-13.16-4.83-13.16-12.11v-20h-8.19v-5.74h8.19v-8.26l7.84-.91v9.17h12.53l-.91,5.74H337.93v20c0,4,1.89,5.88,6.44,5.88a14,14,0,0,0,6.86-1.75l2.8,5.18A20.54,20.54,0,0,1,343.25,2218.56Z" fill="#fff"/><path d="M396.94,2180.68l-1.33,13.65H390v-7.56c-5.25.14-9,4.34-11.2,11.55V2212h7.42v5.6H365.5V2212H371v-25.76H365.5v-5.6h11.41l1.4,8.54c2.8-6.16,6.65-9.45,13-9.45A16.8,16.8,0,0,1,396.94,2180.68Z" fill="#fff"/><path d="M438.66,2199.09c0,11.76-6,19.46-16.73,19.46s-16.73-7.42-16.73-19.39c0-11.55,6-19.46,16.8-19.46S438.66,2187.33,438.66,2199.09Zm-25.2.07c0,9.17,2.8,13.37,8.47,13.37s8.47-4.2,8.47-13.44-2.8-13.3-8.4-13.3S413.45,2190,413.45,2199.16Z" fill="#fff"/><path d="M478.7,2165.84v51.81h-6.93l-.56-4.55a12.24,12.24,0,0,1-10.36,5.46c-9.52,0-13.93-7.77-13.93-19.39,0-11.27,5.53-19.46,14.63-19.46a11.93,11.93,0,0,1,9.31,4.06v-18.83Zm-23.45,33.32c0,9.45,2.8,13.44,7.7,13.44,3.5,0,6.09-2.38,7.91-5.32v-17.43a8.75,8.75,0,0,0-7.28-4.13C458.32,2185.72,455.24,2189.92,455.24,2199.16Z" fill="#fff"/><path d="M499,2206.52c0,4.34,1.75,6.09,5.25,6.09s6.79-2.31,8.61-5.18v-26.74h7.84v37H513.9l-.49-4.76a14.55,14.55,0,0,1-11.62,5.67c-7.21,0-10.64-4.13-10.64-11.06v-26.81H499Z" fill="#fff"/><path d="M560.1,2209l3.57,5a20.61,20.61,0,0,1-13,4.55c-11.41,0-18-7.63-18-19.18,0-11.27,6.72-19.67,18.13-19.67a19.44,19.44,0,0,1,12.81,4.48l-3.64,4.9a16,16,0,0,0-9-3.08c-5.88,0-9.94,4.13-9.94,13.37s4.2,12.74,9.94,12.74A16.23,16.23,0,0,0,560.1,2209Z" fill="#fff"/><path d="M595.24,2218.56c-8.61,0-13.16-4.83-13.16-12.11v-20h-8.19v-5.74h8.19v-8.26l7.84-.91v9.17h12.53l-.91,5.74H589.92v20c0,4,1.89,5.88,6.44,5.88a14,14,0,0,0,6.86-1.75l2.8,5.18A20.54,20.54,0,0,1,595.24,2218.56Z" fill="#fff"/><path d="M637.31,2211.91h10.08v5.74H618.48v-5.74h11v-25.48H618.83v-5.74h18.48Zm-.28-44.38a5.11,5.11,0,1,1-5.11-5A4.89,4.89,0,0,1,637,2167.52Z" fill="#fff"/><path d="M690.65,2199.09c0,11.76-6,19.46-16.73,19.46s-16.73-7.42-16.73-19.39c0-11.55,6-19.46,16.8-19.46S690.65,2187.33,690.65,2199.09Zm-25.2.07c0,9.17,2.8,13.37,8.47,13.37s8.47-4.2,8.47-13.44-2.8-13.3-8.4-13.3S665.45,2190,665.45,2199.16Z" fill="#fff"/><path d="M701.15,2180.68h6.79l.56,4.83a15.46,15.46,0,0,1,12-5.81c6.86,0,10.29,4.06,10.29,11v27h-7.84v-23c0-6.44-.77-8.89-5.25-8.89-3.64,0-6.72,2.59-8.68,5.39v26.53h-7.84Z" fill="#fff"/><path d="M805.24,2218.56c-8.61,0-13.16-4.83-13.16-12.11v-20h-8.19v-5.74h8.19v-8.26l7.84-.91v9.17h12.53l-.91,5.74H799.92v20c0,4,1.89,5.88,6.44,5.88a14,14,0,0,0,6.86-1.75l2.8,5.18A20.54,20.54,0,0,1,805.24,2218.56Z" fill="#fff"/><path d="M858.65,2199.09c0,11.76-6,19.46-16.73,19.46s-16.73-7.42-16.73-19.39c0-11.55,6-19.46,16.8-19.46S858.65,2187.33,858.65,2199.09Zm-25.2.07c0,9.17,2.8,13.37,8.47,13.37s8.47-4.2,8.47-13.44-2.8-13.3-8.4-13.3S833.45,2190,833.45,2199.16Z" fill="#fff"/></g><g style="isolation:isolate"><path d="M210.44,2372H168.55l3-68.58L154.21,2372H113.46l1.56-99.12h31.81l-6.39,75.83,18.89-75.83H193l-4.4,75.83,17.18-75.83H237Z" fill="#fff"/><path d="M254.89,2345.07c.85,6.39,5.11,8.24,10.51,8.24,6.11,0,11.22-2.56,18.46-7L294.22,2364a55.39,55.39,0,0,1-33.09,11.22c-25.7,0-36.92-13.92-36.92-33.37,0-20.59,11.93-48.85,46.86-48.85,20.59,0,31.81,9.37,31.81,22.29C302.89,2336.26,276.19,2343.22,254.89,2345.07Zm17.32-27.83c0-3.41-1.28-5-5.11-5-6.11,0-9.37,7.53-10.93,15.62C272.36,2327.32,272.21,2317.38,272.21,2317.23Z" fill="#fff"/><path d="M340.8,2301.47c4.69-5.11,13.06-8.52,19.88-8.52,16,0,23.43,10.79,23.43,29.39,0,22.29-7.53,52.82-47.85,52.82a82.15,82.15,0,0,1-35.36-7.67l14.2-101.25,31.1-3.12Zm-2.7,20.59-4.26,29.68a19.29,19.29,0,0,0,6,1.14c9.51,0,12.64-17,12.64-28.83,0-7.81-2.41-8.8-5-8.8C344.49,2315.25,341.22,2317,338.1,2322.06Z" fill="#fff"/><path d="M461.36,2354.15H441.48L436.22,2372H402.57L444,2272.93h38.34L496,2372H461.92Zm-.71-22.72L459.51,2293l-11.36,38.48Z" fill="#fff"/><path d="M561.75,2294.8l-8.66,30.39a24,24,0,0,0-6.67-1.28c-8.95,0-12.64,9.09-15.76,17.89L526.39,2372H495.58l10.51-76.11h27l.28,13.06c4.54-9.23,13.49-15.62,20.87-15.62A17.37,17.37,0,0,1,561.75,2294.8Z" fill="#fff"/><path d="M625.65,2303.89,611,2321.35c-3.83-3.55-7.81-5-11.64-5-11.93,0-14.2,14.77-14.2,25,0,8.24,3.83,9.66,8.66,9.66,4.26,0,7.53-1.56,12.5-4.83l11.08,19.6c-7.81,5.54-16.61,9.37-28.26,9.37-23,0-36.21-13.77-36.21-34.36,0-19.6,12.78-47.85,46.29-47.85A35.81,35.81,0,0,1,625.65,2303.89Z" fill="#fff"/><path d="M696.93,2315.53,689,2372H658.17l6.67-47.57c.71-5,0-6-1.14-6-1.85,0-4.83,4.69-9.66,15.34l-5.54,38.2H617.7l14.77-105.79,31.1-3.27-6,44.3c4.54-8.52,14.2-14.34,23.29-14.34C692.39,2293,698.92,2301,696.93,2315.53Z" fill="#fff"/><path d="M727.32,2372H696.5L707,2295.93h30.81Zm15.9-102.52c-1.14,9.09-9.23,16.19-19,16.19-10.08,0-16-7.24-14.77-16.9,1.14-8.95,9.23-16,19-16S744.5,2260,743.22,2269.52Z" fill="#fff"/><path d="M783.83,2348.9l7.38,20c-7.1,4.12-17.32,6.25-24.42,6.25-20-.14-27.12-11.64-24.14-33.09l3.55-25h-8.09l2.84-21.16h9.51l4.54-16,27.55-3.27L780,2295.93h16.47l-6,21.16H777l-3.41,25c-1,7,1,8.52,3.55,8.52A13.71,13.71,0,0,0,783.83,2348.9Z" fill="#fff"/><path d="M822.74,2345.07c.85,6.39,5.11,8.24,10.51,8.24,6.11,0,11.22-2.56,18.46-7L862.07,2364A55.38,55.38,0,0,1,829,2375.17c-25.7,0-36.92-13.92-36.92-33.37,0-20.59,11.93-48.85,46.86-48.85,20.59,0,31.81,9.37,31.81,22.29C870.74,2336.26,844,2343.22,822.74,2345.07Zm17.32-27.83c0-3.41-1.28-5-5.11-5-6.11,0-9.37,7.53-10.93,15.62C840.21,2327.32,840.06,2317.38,840.06,2317.23Z" fill="#fff"/><path d="M942.59,2303.89,928,2321.35c-3.83-3.55-7.81-5-11.64-5-11.93,0-14.2,14.77-14.2,25,0,8.24,3.83,9.66,8.66,9.66,4.26,0,7.53-1.56,12.5-4.83l11.08,19.6c-7.81,5.54-16.61,9.37-28.26,9.37-23,0-36.21-13.77-36.21-34.36,0-19.6,12.78-47.85,46.29-47.85A35.81,35.81,0,0,1,942.59,2303.89Z" fill="#fff"/><path d="M983.05,2348.9l7.38,20c-7.1,4.12-17.32,6.25-24.42,6.25-20-.14-27.12-11.64-24.14-33.09l3.55-25h-8.09l2.84-21.16h9.51l4.54-16,27.55-3.27-2.56,19.31h16.47l-6,21.16H976.24l-3.41,25c-1,7,1,8.52,3.55,8.52A13.71,13.71,0,0,0,983.05,2348.9Z" fill="#fff"/><path d="M1060.87,2372h-27l.14-8.66c-6.11,7.1-14.2,11.79-23.15,11.79-14.91,0-19.6-10.08-17.61-24.57l7.67-54.67h30.81l-6.53,48.28c-.71,5,.71,5.68,2.13,5.68s4-2.27,6.53-7l6.67-47h30.81Z" fill="#fff"/><path d="M1135.28,2294.8l-8.66,30.39a24,24,0,0,0-6.67-1.28c-8.95,0-12.64,9.09-15.76,17.89l-4.26,30.25h-30.81l10.51-76.11h27l.28,13.06c4.54-9.23,13.49-15.62,20.87-15.62A17.37,17.37,0,0,1,1135.28,2294.8Z" fill="#fff"/><path d="M1157.15,2345.07c.85,6.39,5.11,8.24,10.51,8.24,6.11,0,11.22-2.56,18.46-7l10.37,17.61a55.39,55.39,0,0,1-33.09,11.22c-25.7,0-36.92-13.92-36.92-33.37,0-20.59,11.93-48.85,46.86-48.85,20.59,0,31.81,9.37,31.81,22.29C1205.14,2336.26,1178.45,2343.22,1157.15,2345.07Zm17.32-27.83c0-3.41-1.28-5-5.11-5-6.11,0-9.37,7.53-10.93,15.62C1174.61,2327.32,1174.47,2317.38,1174.47,2317.23Z" fill="#fff"/></g></g></svg>