<svg xmlns="http://www.w3.org/2000/svg" viewBox="0 0 681 877.07"><title>developer_empathy</title><g id="Layer_2" data-name="Layer 2"><rect width="681" height="877.07"/></g><g id="Layer_1" data-name="Layer 1"><g id="Rectangle"><rect id="path-1" x="206.5" y="107.85" width="281" height="169" rx="8" ry="8" fill="#fff" stroke="#333" stroke-width="4"/></g><g id="Does-it-benefit-me-a" style="isolation:isolate"><text transform="translate(247.7 167.85)" font-size="24" font-family="FiraSans-Bold, Fira Sans" font-weight="700" style="isolation:isolate">Does it benefit me </text><text transform="translate(241.08 201.85)" font-size="24" font-family="FiraSans-Bold, Fira Sans" font-weight="700" style="isolation:isolate">as the d<tspan x="86.93" y="0" letter-spacing="-0.01em">ev</tspan><tspan x="112.05" y="0">e</tspan><tspan x="125.35" y="0" letter-spacing="-0.01em">l</tspan><tspan x="132.24" y="0">oper or </tspan></text><text transform="translate(292.85 235.85)" font-size="24" font-family="FiraSans-Bold, Fira Sans" font-weight="700" style="isolation:isolate"><tspan letter-spacing="-0.01em">m</tspan><tspan x="20.04" y="0">y use</tspan><tspan x="76.77" y="0" letter-spacing="-0.01em">r</tspan><tspan x="86.16" y="0">s?</tspan></text></g><g id="Rectangle-2" opacity="0.9"><rect id="path-3" x="92.5" y="378.85" width="153" height="119" rx="8" ry="8" fill="#fff" stroke="#333" stroke-width="4"/></g><g id="Rectangle-2-Copy-2" opacity="0.9"><rect id="path-5" x="270.5" y="536.85" width="153" height="119" rx="8" ry="8" fill="#fff" stroke="#333" stroke-width="4"/></g><g id="Me" style="isolation:isolate"><text transform="translate(146.84 448.85)" font-size="36" font-family="FiraSans-Bold, Fira Sans" font-weight="700" letter-spacing="0em" style="isolation:isolate">M<tspan x="28.37" y="0" letter-spacing="0em">e</tspan></text></g><g id="Both" style="isolation:isolate"><text transform="translate(308.05 609.85)" font-size="36" font-family="FiraSans-Bold, Fira Sans" font-weight="700" style="isolation:isolate">Both</text></g><g id="Rectangle-2-Copy"><rect id="path-7" x="448.5" y="379.85" width="153" height="119" rx="8" ry="8" fill="#fff" stroke="#333" stroke-width="4"/></g><g id="Users" style="isolation:isolate"><text transform="translate(479.88 448.85)" font-size="36" font-family="FiraSans-Bold, Fira Sans" font-weight="700" style="isolation:isolate">Use<tspan x="60.77" y="0" letter-spacing="-0.01em">r</tspan><tspan x="74.84" y="0" letter-spacing="0em">s</tspan></text></g><g id="Rectangle-3"><rect id="path-9" x="106.5" y="710.85" width="496" height="133" rx="8" ry="8" fill="#fff" stroke="#333" stroke-width="4"/></g><g id="Do-it" style="isolation:isolate"><text transform="translate(297.98 794.85)" font-size="48" font-family="FiraSans-ExtraBoldItalic, Fira Sans" font-weight="700" font-style="italic" style="isolation:isolate">Do it</text></g><g id="Developer-Empathy" style="isolation:isolate"><text transform="translate(78.74 73.85)" font-size="48" fill="#fff" font-family="FiraSans-BoldItalic, Fira Sans" font-weight="700" font-style="italic" style="isolation:isolate">Empat<tspan x="138.38" y="0" letter-spacing="-0.01em">h</tspan><tspan x="165.12" y="0" letter-spacing="0em">y of a D</tspan><tspan x="324.57" y="0" letter-spacing="-0.01em">ev</tspan><tspan x="373.43" y="0" letter-spacing="0em">e</tspan><tspan x="399.11" y="0" letter-spacing="-0.01em">l</tspan><tspan x="412.46" y="0">oper </tspan></text></g><path id="Line-Copy" d="M526,522.35v168.5" fill="none" stroke="#f2f2f2" stroke-linecap="square" stroke-width="3"/><path d="M161.77,363.87V322s-1.85-11.63,5.49-11.63H309.85" fill="none" stroke="#f2f2f2" stroke-width="3"/><path d="M522.09,363.87V322s1.85-11.63-10.49-11.63H369" fill="none" stroke="#f2f2f2" stroke-width="3"/><line x1="338.67" y1="517.37" x2="338" y2="310.35" fill="none" stroke="#f2f2f2" stroke-width="3"/><line x1="338.09" y1="696.81" x2="338" y2="668.18" fill="none" stroke="#f2f2f2" stroke-width="3"/></g></svg>